<svg width="520" height="520" viewBox="0 0 520 520" fill="none" xmlns="http://www.w3.org/2000/svg">
<path fill-rule="evenodd" clip-rule="evenodd" d="M174.839 182.007C189.029 181.97 205.912 182.08 212.315 182.298C218.719 182.517 225.596 182.844 227.597 183.026C231.017 183.391 231.527 183.536 236.33 185.903C239.131 187.287 242.66 189.326 244.152 190.491C245.644 191.619 248.482 194.168 250.447 196.098C252.412 198.028 254.922 200.904 255.977 202.506C257.033 204.108 258.342 206.366 258.852 207.495C259.361 208.66 259.798 209.934 259.798 210.335C259.798 210.808 259.507 211.136 258.961 211.245C258.524 211.354 247.427 211.391 210.496 211.245L209.041 208.514C208.24 207.021 207.185 205.237 206.676 204.545C206.166 203.854 204.929 202.688 203.947 201.96C202.928 201.196 201.473 200.285 200.672 199.885C199.872 199.484 198.38 198.938 197.398 198.647C195.869 198.21 187.173 198.137 91.5173 198.137L88.2426 199.157C86.4234 199.739 83.4762 200.904 81.6933 201.778C79.8741 202.652 77.1452 204.181 75.5806 205.201C74.0525 206.22 71.6511 208.15 70.3048 209.497C68.9222 210.881 67.0666 213.138 66.1933 214.522C65.2837 215.906 63.7919 218.564 62.8823 220.348C61.9727 222.132 60.9903 224.535 60.7356 225.627C60.4081 226.938 60.2626 229.997 60.2626 234.366C60.2626 239.791 60.3717 241.575 60.9175 243.469C61.2813 244.78 62.009 246.819 62.5912 248.02C63.137 249.222 64.3377 251.261 65.2473 252.572C66.1569 253.882 68.0853 256.103 69.5407 257.487C71.0325 258.907 73.3612 260.728 74.7802 261.565C76.1628 262.366 78.4551 263.604 79.8741 264.332C81.2567 265.024 83.4762 265.934 87.1511 267.136H149.733C204.82 267.136 212.534 267.063 214.135 266.553C215.117 266.262 217.009 265.425 218.319 264.696C219.629 263.968 221.63 262.403 222.758 261.237C223.922 260.072 225.305 258.361 225.851 257.378C226.396 256.431 227.16 254.756 227.488 253.664C227.925 252.353 228.143 250.569 228.143 248.457C228.143 245.581 228.07 245.216 226.324 243.469H209.95V228.722L211.115 228.431C211.77 228.285 223.013 228.176 259.798 228.176V284.613L259.07 283.885C258.379 283.193 257.869 283.157 243.497 283.157C235.347 283.193 228.652 283.12 228.616 283.084C228.579 283.011 228.834 281.846 229.234 280.426C229.707 278.751 229.962 276.712 229.962 274.418C229.999 272.051 229.853 270.813 229.525 270.522C229.162 270.194 228.216 270.85 225.05 273.799C222.867 275.875 219.883 278.205 218.501 279.042C217.082 279.88 214.535 281.154 209.587 283.157H48.9468L45.3083 281.919C43.3072 281.227 41.0149 280.426 40.2144 280.135C39.414 279.843 37.7766 279.152 36.5759 278.605C35.3752 278.096 33.4104 277.04 32.2097 276.312C31.009 275.583 28.8623 274.054 27.4797 272.925C26.0607 271.797 23.6229 269.503 22.0219 267.828C20.421 266.116 18.3107 263.531 17.3283 262.038C16.3459 260.546 15.036 258.252 14.4539 256.941C13.8717 255.63 13.0712 253.664 12.671 252.572C12.3072 251.479 11.6158 249.003 11.1428 247.11C10.6698 245.216 10.1604 242.158 10.0513 240.374C9.94213 238.59 10.0149 235.313 10.1968 233.092C10.4151 230.871 10.9245 227.521 11.2884 225.627C11.6522 223.734 12.4891 220.675 13.1076 218.891C13.7626 217.107 14.9996 214.194 15.8729 212.41C16.7461 210.662 17.9104 208.551 18.4562 207.677C18.9656 206.839 20.2755 205.092 21.2942 203.781C22.3494 202.47 24.8964 199.775 26.9703 197.773C29.0442 195.77 32.3917 193.039 34.3928 191.729C36.394 190.381 39.3412 188.67 40.9421 187.833C42.5431 187.032 44.9081 185.976 46.218 185.466C47.5278 184.956 49.6381 184.228 50.948 183.827C52.2579 183.427 54.9504 182.99 56.9515 182.844C58.9527 182.699 80.4926 182.444 104.798 182.335C129.103 182.189 160.612 182.043 174.839 182.007Z" fill="#EE1D21" fill-opacity="0.99"/>
<path fill-rule="evenodd" clip-rule="evenodd" d="M487.022 228.358L490.115 229.851C491.825 230.652 494.263 232.036 495.572 232.91C496.882 233.783 499.247 235.822 500.848 237.461C502.631 239.245 504.45 241.648 505.542 243.505C506.561 245.18 507.798 247.802 508.344 249.295C508.889 250.787 509.508 253.008 509.763 254.21C510.054 255.812 510.09 257.596 509.799 260.946C509.581 263.677 509.071 266.663 508.562 268.41C508.089 270.012 506.997 272.634 506.197 274.236C505.36 275.838 503.832 278.205 502.74 279.516C501.685 280.827 499.757 282.683 498.447 283.667C497.173 284.65 494.808 286.07 493.207 286.834C491.606 287.599 489.46 288.327 488.477 288.436C487.495 288.582 442.669 288.691 388.892 288.728C335.151 288.764 291.052 288.873 290.943 288.983C290.798 289.092 290.652 298.486 290.579 309.919C290.507 321.352 290.579 331.401 290.761 332.312C290.98 333.55 291.343 334.169 292.253 334.861C292.908 335.37 293.927 336.208 295.637 337.737L255.977 337.773L257.505 336.244C258.342 335.37 259.216 334.169 259.434 333.586C259.725 332.822 259.834 317.711 259.798 280.608C259.798 252.062 259.761 228.613 259.798 228.431C259.798 228.285 310.919 228.213 487.022 228.358ZM301.64 248.02C301.349 248.748 301.24 252.499 301.313 259.126C301.349 264.624 301.531 269.43 301.677 269.794C302.004 270.377 306.371 270.413 386.927 270.34L471.813 270.231C474.906 268.155 475.997 267.027 476.652 265.862C477.234 264.878 477.962 263.058 478.29 261.856C478.69 260.364 478.799 258.98 478.653 257.487C478.508 256.249 477.962 254.356 477.38 253.118C476.725 251.698 475.706 250.35 474.433 249.185C473.341 248.239 471.886 247.183 471.194 246.819C469.994 246.236 464.936 246.2 386.599 246.09C320.015 246.018 303.132 246.09 302.659 246.454C302.332 246.709 301.859 247.438 301.64 248.02Z" fill="#00207B" fill-opacity="0.99"/>
<path d="M97.9873 307.64C97.5819 306.893 96.9953 306.328 96.2273 305.944C95.4806 305.539 94.5953 305.336 93.5713 305.336C91.8006 305.336 90.3819 305.923 89.3153 307.096C88.2486 308.248 87.7153 309.795 87.7153 311.736C87.7153 313.805 88.2699 315.427 89.3793 316.6C90.5099 317.752 92.0566 318.328 94.0193 318.328C95.3633 318.328 96.4939 317.987 97.4113 317.304C98.3499 316.621 99.0326 315.64 99.4593 314.36H92.5153V310.328H104.419V315.416C104.014 316.781 103.321 318.051 102.339 319.224C101.379 320.397 100.153 321.347 98.6593 322.072C97.1659 322.797 95.4806 323.16 93.6033 323.16C91.3846 323.16 89.4006 322.68 87.6513 321.72C85.9233 320.739 84.5686 319.384 83.5873 317.656C82.6273 315.928 82.1473 313.955 82.1473 311.736C82.1473 309.517 82.6273 307.544 83.5873 305.816C84.5686 304.067 85.9233 302.712 87.6513 301.752C89.3793 300.771 91.3526 300.28 93.5713 300.28C96.2593 300.28 98.5206 300.931 100.355 302.232C102.211 303.533 103.438 305.336 104.035 307.64H97.9873ZM117.626 323L112.954 314.52H111.642V323H106.17V300.536H115.354C117.125 300.536 118.629 300.845 119.866 301.464C121.125 302.083 122.064 302.936 122.682 304.024C123.301 305.091 123.61 306.285 123.61 307.608C123.61 309.101 123.184 310.435 122.33 311.608C121.498 312.781 120.261 313.613 118.618 314.104L123.802 323H117.626ZM111.642 310.648H115.034C116.037 310.648 116.784 310.403 117.274 309.912C117.786 309.421 118.042 308.728 118.042 307.832C118.042 306.979 117.786 306.307 117.274 305.816C116.784 305.325 116.037 305.08 115.034 305.08H111.642V310.648ZM131.141 300.536V313.976C131.141 315.32 131.472 316.355 132.133 317.08C132.795 317.805 133.765 318.168 135.045 318.168C136.325 318.168 137.307 317.805 137.989 317.08C138.672 316.355 139.013 315.32 139.013 313.976V300.536H144.485V313.944C144.485 315.949 144.059 317.645 143.205 319.032C142.352 320.419 141.2 321.464 139.749 322.168C138.32 322.872 136.72 323.224 134.949 323.224C133.179 323.224 131.589 322.883 130.181 322.2C128.795 321.496 127.696 320.451 126.885 319.064C126.075 317.656 125.669 315.949 125.669 313.944V300.536H131.141ZM164.168 307.768C164.168 309.069 163.869 310.264 163.272 311.352C162.674 312.419 161.757 313.283 160.52 313.944C159.282 314.605 157.746 314.936 155.912 314.936H152.52V323H147.048V300.536H155.912C157.704 300.536 159.218 300.845 160.456 301.464C161.693 302.083 162.621 302.936 163.24 304.024C163.858 305.112 164.168 306.36 164.168 307.768ZM155.496 310.584C156.541 310.584 157.32 310.339 157.832 309.848C158.344 309.357 158.6 308.664 158.6 307.768C158.6 306.872 158.344 306.179 157.832 305.688C157.32 305.197 156.541 304.952 155.496 304.952H152.52V310.584H155.496ZM176.361 323.224C174.249 323.224 172.307 322.733 170.537 321.752C168.787 320.771 167.39 319.405 166.345 317.656C165.321 315.885 164.809 313.901 164.809 311.704C164.809 309.507 165.321 307.533 166.345 305.784C167.39 304.035 168.787 302.669 170.537 301.688C172.307 300.707 174.249 300.216 176.361 300.216C178.473 300.216 180.403 300.707 182.153 301.688C183.923 302.669 185.31 304.035 186.313 305.784C187.337 307.533 187.849 309.507 187.849 311.704C187.849 313.901 187.337 315.885 186.313 317.656C185.289 319.405 183.902 320.771 182.153 321.752C180.403 322.733 178.473 323.224 176.361 323.224ZM176.361 318.232C178.153 318.232 179.582 317.635 180.649 316.44C181.737 315.245 182.281 313.667 182.281 311.704C182.281 309.72 181.737 308.141 180.649 306.968C179.582 305.773 178.153 305.176 176.361 305.176C174.547 305.176 173.097 305.763 172.009 306.936C170.942 308.109 170.409 309.699 170.409 311.704C170.409 313.688 170.942 315.277 172.009 316.472C173.097 317.645 174.547 318.232 176.361 318.232Z" fill="#EC1D21"/>
<path d="M318.24 307.768C318.24 309.069 317.941 310.264 317.344 311.352C316.746 312.419 315.829 313.283 314.592 313.944C313.354 314.605 311.818 314.936 309.984 314.936H306.592V323H301.12V300.536H309.984C311.776 300.536 313.29 300.845 314.528 301.464C315.765 302.083 316.693 302.936 317.312 304.024C317.93 305.112 318.24 306.36 318.24 307.768ZM309.568 310.584C310.613 310.584 311.392 310.339 311.904 309.848C312.416 309.357 312.672 308.664 312.672 307.768C312.672 306.872 312.416 306.179 311.904 305.688C311.392 305.197 310.613 304.952 309.568 304.952H306.592V310.584H309.568ZM333.792 319.032H325.408L324.064 323H318.336L326.464 300.536H332.8L340.928 323H335.136L333.792 319.032ZM332.384 314.808L329.6 306.584L326.848 314.808H332.384ZM355.146 323L347.594 313.08V323H342.122V300.536H347.594V310.392L355.082 300.536H361.514L352.81 311.544L361.834 323H355.146ZM377.139 319.032H368.755L367.411 323H361.683L369.811 300.536H376.147L384.275 323H378.483L377.139 319.032ZM375.731 314.808L372.947 306.584L370.195 314.808H375.731ZM401.628 300.536V304.92H395.676V323H390.204V304.92H384.252V300.536H401.628ZM423.191 323H417.719L408.567 309.144V323H403.095V300.536H408.567L417.719 314.456V300.536H423.191V323ZM439.861 319.032H431.477L430.133 323H424.405L432.533 300.536H438.869L446.997 323H441.205L439.861 319.032ZM438.453 314.808L435.669 306.584L432.917 314.808H438.453ZM473.631 300.536V323H468.159V309.528L463.135 323H458.719L453.663 309.496V323H448.191V300.536H454.655L460.959 316.088L467.199 300.536H473.631ZM481.662 300.536V313.976C481.662 315.32 481.993 316.355 482.654 317.08C483.315 317.805 484.286 318.168 485.566 318.168C486.846 318.168 487.827 317.805 488.51 317.08C489.193 316.355 489.534 315.32 489.534 313.976V300.536H495.006V313.944C495.006 315.949 494.579 317.645 493.726 319.032C492.873 320.419 491.721 321.464 490.27 322.168C488.841 322.872 487.241 323.224 485.47 323.224C483.699 323.224 482.11 322.883 480.702 322.2C479.315 321.496 478.217 320.451 477.406 319.064C476.595 317.656 476.19 315.949 476.19 313.944V300.536H481.662Z" fill="#00207A"/>
</svg>
